<?xml version="1.0" encoding="UTF-8" standalone="no"?>
<!DOCTYPE svg PUBLIC "-//W3C//DTD SVG 1.1//EN" "http://www.w3.org/Graphics/SVG/1.1/DTD/svg11.dtd">
<svg width="100%" height="100%" viewBox="0 0 650 650" version="1.1" xmlns="http://www.w3.org/2000/svg" xmlns:xlink="http://www.w3.org/1999/xlink" xml:space="preserve" xmlns:serif="http://www.serif.com/" style="fill-rule:evenodd;clip-rule:evenodd;stroke-linejoin:round;stroke-miterlimit:2;">
    <g transform="matrix(1,0,0,1,-6171.256875,-1446.850833)">
        <g transform="matrix(4.166667,0,0,4.166667,5314.959375,0)">
            <g transform="matrix(1,0,0,1,282.0564,356.6662)">
                <path d="M0,137.061L-3.09,136.877C-3.09,136.877 -4.889,133.847 -6.145,131.642C-8.552,126.897 -10.314,121.979 -11.46,116.991L-11.461,116.993C-11.461,116.993 -12.999,111.791 -13.175,103.926C-12.887,91.976 -3.783,81.958 8.277,80.68C9.815,80.516 11.457,80.364 13.211,80.217C13.99,80.168 14.768,80.107 15.544,80.03C15.563,80.029 15.582,80.027 15.601,80.025C38.649,78.264 52.982,63.171 52.982,63.171L52.979,63.171C57.547,58.922 61.569,53.931 64.851,48.247C65.309,47.452 65.744,46.651 66.165,45.845C72.513,64.035 71.205,84.777 60.817,102.771C47.872,125.194 24.177,137.538 0,137.061M-58.001,102.828C-70.947,80.406 -69.79,53.714 -57.288,33.014L-55.584,30.43C-55.584,30.43 -52.06,30.387 -49.523,30.402C-44.21,30.69 -39.07,31.623 -34.177,33.125L-34.178,33.123C-34.178,33.123 -28.904,34.392 -22.005,38.172C-11.8,44.396 -7.676,57.29 -12.599,68.373C-13.227,69.787 -13.916,71.285 -14.665,72.878C-15.013,73.576 -15.349,74.281 -15.67,74.991C-15.678,75.009 -15.686,75.026 -15.695,75.043C-25.693,95.883 -19.789,115.843 -19.789,115.843L-19.787,115.841C-18.391,121.921 -16.08,127.899 -12.798,133.584C-12.34,134.378 -11.863,135.155 -11.376,135.923C-30.302,132.326 -47.613,120.822 -58.001,102.828M1.121,-0.014C27.012,-0.014 49.55,14.334 61.225,35.511L62.611,38.278C62.611,38.278 60.886,41.352 59.605,43.542C56.699,47.999 53.321,51.984 49.574,55.47L49.576,55.47C49.576,55.47 45.84,59.404 39.117,63.488C28.624,69.214 15.396,66.338 8.259,56.533C7.349,55.283 6.395,53.937 5.391,52.492C4.96,51.841 4.517,51.198 4.063,50.564C4.052,50.548 4.041,50.533 4.03,50.517C-9.019,31.438 -29.256,26.572 -29.256,26.572L-29.255,26.574C-35.219,24.743 -41.552,23.755 -48.116,23.755C-49.033,23.755 -49.944,23.78 -50.852,23.818C-38.274,9.225 -19.656,-0.014 1.121,-0.014M1.408,-9.422C-41.644,-9.422 -76.545,25.478 -76.545,68.53C-76.545,111.583 -41.644,146.483 1.408,146.483C44.46,146.483 79.361,111.583 79.361,68.53C79.361,25.478 44.46,-9.422 1.408,-9.422" style="fill:white;fill-rule:nonzero;"/>
            </g>
            <g transform="matrix(1,0,0,1,231.2039,402.0485)">
                <path d="M0,-21.565C0.908,-21.603 1.82,-21.627 2.737,-21.627C9.301,-21.627 15.634,-20.639 21.597,-18.808L21.596,-18.81C21.596,-18.81 41.833,-13.944 54.883,5.135C54.894,5.151 54.904,5.166 54.915,5.182C55.37,5.816 55.812,6.459 56.244,7.109C57.247,8.555 58.201,9.901 59.112,11.151C66.248,20.956 79.477,23.831 89.969,18.106C96.692,14.021 100.429,10.088 100.429,10.088L100.426,10.087C104.173,6.602 107.552,2.617 110.457,-1.841C111.739,-4.031 113.463,-7.104 113.463,-7.104L112.077,-9.872C100.402,-31.048 77.865,-45.396 51.973,-45.396C31.196,-45.396 12.579,-36.157 0,-21.565" style="fill:rgb(0,42,69);fill-rule:nonzero;"/>
            </g>
            <g transform="matrix(1,0,0,1,348.2216,494.2046)">
                <path d="M0,-91.693C-0.421,-90.887 -0.856,-90.086 -1.315,-89.291C-4.597,-83.608 -8.618,-78.617 -13.186,-74.368L-13.184,-74.367C-13.184,-74.367 -27.516,-59.275 -50.564,-57.513C-50.583,-57.511 -50.602,-57.51 -50.622,-57.508C-51.397,-57.431 -52.175,-57.37 -52.954,-57.321C-54.708,-57.175 -56.35,-57.022 -57.888,-56.859C-69.948,-55.581 -79.052,-45.562 -79.341,-33.612C-79.164,-25.748 -77.626,-20.546 -77.626,-20.546L-77.625,-20.547C-76.48,-15.56 -74.717,-10.641 -72.31,-5.897C-71.055,-3.692 -69.255,-0.662 -69.255,-0.662L-66.165,-0.477C-41.988,0 -18.294,-12.345 -5.348,-34.767C5.04,-52.76 6.348,-73.504 0,-91.693" style="fill:rgb(246,184,0);fill-rule:nonzero;"/>
            </g>
            <g transform="matrix(1,0,0,1,270.6803,387.0531)">
                <path d="M0,105.536C-0.487,104.769 -0.964,103.991 -1.422,103.197C-4.704,97.512 -7.015,91.534 -8.411,85.454L-8.413,85.456C-8.413,85.456 -14.317,65.497 -4.319,44.656C-4.31,44.639 -4.302,44.622 -4.294,44.604C-3.973,43.894 -3.637,43.19 -3.289,42.491C-2.54,40.898 -1.851,39.4 -1.223,37.986C3.7,26.903 -0.424,14.009 -10.629,7.785C-17.528,4.006 -22.802,2.736 -22.802,2.736L-22.801,2.738C-27.694,1.236 -32.834,0.303 -38.147,0.016C-40.684,0 -44.208,0.043 -44.208,0.043L-45.912,2.628C-58.414,23.327 -59.571,50.019 -46.625,72.442C-36.237,90.434 -18.926,101.939 0,105.536" style="fill:rgb(222,0,55);fill-rule:nonzero;"/>
            </g>
        </g>
    </g>
</svg>
