<?xml version="1.0" encoding="UTF-8" standalone="no"?>
<!DOCTYPE svg PUBLIC "-//W3C//DTD SVG 1.1//EN" "http://www.w3.org/Graphics/SVG/1.1/DTD/svg11.dtd">
<svg width="100%" height="100%" viewBox="0 0 651 650" version="1.1" xmlns="http://www.w3.org/2000/svg" xmlns:xlink="http://www.w3.org/1999/xlink" xml:space="preserve" xmlns:serif="http://www.serif.com/" style="fill-rule:evenodd;clip-rule:evenodd;stroke-linejoin:round;stroke-miterlimit:2;">
    <g transform="matrix(1,0,0,1,-6901.023497,-1446.8475)">
        <g transform="matrix(4.166667,0,0,4.166667,5314.959375,0)">
            <g transform="matrix(1,0,0,1,423.8088,392.5484)">
                <path d="M0,-15.066L-0.002,-15.068C-0.002,-15.068 23.014,-9.535 37.854,12.163C37.867,12.181 37.879,12.199 37.891,12.217C38.408,12.937 38.91,13.669 39.402,14.409C40.544,16.051 41.629,17.583 42.663,19.005C47.983,26.315 56.285,30.239 64.732,30.239C69.169,30.239 73.646,29.156 77.757,26.914C85.402,22.268 89.651,17.795 89.651,17.795L89.649,17.795C93.911,13.832 97.752,9.299 101.055,4.23C102.514,1.739 104.475,-1.756 104.475,-1.756L102.899,-4.904C89.622,-28.987 63.991,-45.305 34.544,-45.305C10.917,-45.305 -10.257,-34.796 -24.563,-18.201C-23.529,-18.245 -22.494,-18.271 -21.449,-18.271C-13.985,-18.271 -6.783,-17.15 0,-15.066" style="fill:white;fill-rule:nonzero;"/>
            </g>
            <g transform="matrix(1,0,0,1,532.3256,503.149)">
                <path d="M0,-103.751C-0.477,-102.835 -0.973,-101.923 -1.494,-101.019C-5.228,-94.555 -9.801,-88.879 -14.995,-84.047L-14.992,-84.047C-14.992,-84.047 -31.292,-66.882 -57.504,-64.879C-57.525,-64.877 -57.547,-64.876 -57.568,-64.874C-58.452,-64.786 -59.335,-64.717 -60.223,-64.661C-62.216,-64.495 -64.085,-64.32 -65.834,-64.136C-79.549,-62.681 -89.902,-51.288 -90.23,-37.698C-90.029,-28.755 -88.281,-22.837 -88.281,-22.837L-88.279,-22.839C-86.977,-17.167 -84.974,-11.574 -82.235,-6.178C-80.808,-3.671 -78.759,-0.225 -78.759,-0.225L-75.245,-0.016C-74.736,-0.005 -74.221,0 -73.709,0C-46.75,0 -20.529,-13.987 -6.082,-39.011C5.734,-59.474 7.221,-83.065 0,-103.751" style="fill:white;fill-rule:nonzero;"/>
            </g>
            <g transform="matrix(1,0,0,1,434.5764,404.6688)">
                <path d="M0,74.333L-0.002,74.334C-0.002,74.334 -6.717,51.636 4.654,27.935C4.662,27.914 4.672,27.896 4.682,27.875C5.047,27.067 5.429,26.267 5.824,25.472C6.677,23.662 7.46,21.956 8.175,20.349C13.774,7.745 9.082,-6.919 -2.522,-13.998C-10.368,-18.295 -16.367,-19.74 -16.367,-19.74L-16.366,-19.738C-21.93,-21.446 -27.776,-22.508 -33.816,-22.833C-34.253,-22.836 -34.713,-22.837 -35.182,-22.837C-37.821,-22.837 -40.711,-22.802 -40.711,-22.802L-42.648,-19.863C-56.866,3.678 -58.182,34.033 -43.459,59.534C-31.644,79.997 -11.959,93.079 9.566,97.17C9.012,96.298 8.469,95.415 7.949,94.511C4.215,88.046 1.587,81.247 0,74.333" style="fill:white;fill-rule:nonzero;"/>
            </g>
        </g>
    </g>
</svg>
