<?xml version="1.0" encoding="UTF-8" standalone="no"?>
<!DOCTYPE svg PUBLIC "-//W3C//DTD SVG 1.1//EN" "http://www.w3.org/Graphics/SVG/1.1/DTD/svg11.dtd">
<svg width="100%" height="100%" viewBox="0 0 1442 199" version="1.1" xmlns="http://www.w3.org/2000/svg" xmlns:xlink="http://www.w3.org/1999/xlink" xml:space="preserve" xmlns:serif="http://www.serif.com/" style="fill-rule:evenodd;clip-rule:evenodd;stroke-linejoin:round;stroke-miterlimit:2;">
    <g transform="matrix(1,0,0,1,-679.166473,-1375.898333)">
        <g transform="matrix(4.166667,0,0,4.166667,0,0)">
            <g transform="matrix(1,0,0,1,504.2284,364.8724)">
                <path d="M0,-0.399L0.795,-0.399C1.176,-0.399 1.434,-0.454 1.573,-0.567C1.71,-0.682 1.781,-0.832 1.781,-1.017C1.781,-1.139 1.748,-1.244 1.68,-1.341C1.616,-1.435 1.522,-1.507 1.401,-1.553C1.286,-1.601 1.066,-1.623 0.746,-1.623L0,-1.623L0,-0.399ZM-0.657,1.889L-0.657,-2.174L0.74,-2.174C1.217,-2.174 1.562,-2.136 1.777,-2.06C1.988,-1.987 2.158,-1.854 2.286,-1.668C2.413,-1.481 2.474,-1.282 2.474,-1.072C2.474,-0.777 2.371,-0.517 2.156,-0.298C1.947,-0.077 1.663,0.045 1.315,0.073C1.459,0.134 1.573,0.204 1.66,0.287C1.824,0.449 2.021,0.714 2.261,1.092L2.754,1.889L1.956,1.889L1.597,1.248C1.313,0.745 1.085,0.43 0.908,0.303C0.789,0.211 0.614,0.163 0.385,0.163L0,0.163L0,1.889L-0.657,1.889ZM1.001,-3.347C0.47,-3.347 -0.045,-3.212 -0.545,-2.94C-1.049,-2.669 -1.443,-2.282 -1.725,-1.777C-2.008,-1.27 -2.151,-0.746 -2.151,-0.198C-2.151,0.345 -2.012,0.867 -1.732,1.366C-1.457,1.863 -1.066,2.254 -0.565,2.531C-0.065,2.808 0.459,2.948 1.001,2.948C1.544,2.948 2.064,2.808 2.566,2.531C3.065,2.254 3.457,1.863 3.731,1.366C4.009,0.867 4.147,0.345 4.147,-0.198C4.147,-0.746 4.004,-1.27 3.726,-1.777C3.442,-2.282 3.049,-2.669 2.547,-2.94C2.041,-3.212 1.53,-3.347 1.001,-3.347M1.001,-3.973C1.633,-3.973 2.254,-3.811 2.855,-3.487C3.462,-3.162 3.93,-2.695 4.268,-2.092C4.6,-1.484 4.772,-0.854 4.772,-0.198C4.772,0.452 4.604,1.078 4.275,1.678C3.943,2.278 3.477,2.745 2.879,3.074C2.281,3.407 1.653,3.574 1.001,3.574C0.345,3.574 -0.276,3.407 -0.878,3.074C-1.476,2.745 -1.945,2.278 -2.277,1.678C-2.61,1.078 -2.776,0.452 -2.776,-0.198C-2.776,-0.854 -2.606,-1.484 -2.268,-2.092C-1.927,-2.695 -1.459,-3.162 -0.854,-3.487C-0.251,-3.811 0.368,-3.973 1.001,-3.973" style="fill:rgb(36,44,71);fill-rule:nonzero;"/>
            </g>
            <g transform="matrix(1,0,0,1,234.5997,338.1068)">
                <path d="M0,29.214C-2.359,29.816 -5.468,30.242 -8.577,30.242C-15.278,30.242 -18.24,27.051 -18.24,22.812C-18.24,22.31 -18.195,21.718 -18.058,20.989L-15.733,7.861C-14.639,1.662 -10.856,-1.028 -3.472,-1.028C-0.418,-1.028 2.317,-0.526 5.28,0.294L4.169,6.154C1.616,5.607 -1.967,5.035 -4.155,5.035C-7.392,5.035 -8.714,6.129 -9.261,9.319L-11.13,19.895C-11.221,20.396 -11.266,20.989 -11.266,21.308C-11.266,23.405 -10.081,24.179 -7.529,24.179C-5.341,24.179 -1.545,23.725 1.19,23.133" style="fill:rgb(0,42,69);fill-rule:nonzero;"/>
            </g>
            <g transform="matrix(1,0,0,1,252.5756,360.2921)">
                <path d="M0,-7.339C0,-8.98 -1.003,-9.846 -3.1,-9.846C-5.515,-9.846 -6.929,-8.615 -7.293,-6.427L-8.25,-0.912C-8.296,-0.593 -8.342,-0.274 -8.342,0C-8.342,1.595 -7.339,2.507 -5.242,2.507C-2.78,2.507 -1.413,1.276 -1.048,-0.912L-0.091,-6.427C-0.046,-6.746 0,-7.065 0,-7.339M-14.814,0.456C-14.814,-0.046 -14.769,-0.593 -14.678,-1.094L-13.766,-6.245C-12.763,-11.943 -9.983,-15.225 -2.234,-15.225C3.738,-15.225 6.427,-11.806 6.427,-7.84C6.427,-7.339 6.382,-6.792 6.29,-6.245L5.379,-1.094C4.422,4.239 1.869,7.886 -6.199,7.886C-11.851,7.886 -14.814,4.513 -14.814,0.456" style="fill:rgb(0,42,69);fill-rule:nonzero;"/>
            </g>
            <g transform="matrix(1,0,0,1,324.5505,352.8955)">
                <path d="M0,7.841C-0.046,8.069 -0.091,8.342 -0.091,8.525C-0.091,8.98 0.137,9.208 0.775,9.208C1.96,9.208 4.877,7.932 6.518,7.112L8.934,-6.7L15.544,-7.612L11.609,15.309L5.795,15.309L6.062,12.946C2.598,14.587 -0.137,15.453 -2.689,15.453C-5.607,15.453 -6.746,13.721 -6.746,10.941C-6.746,10.029 -6.655,9.3 -6.518,8.388L-3.875,-6.7L2.689,-7.612L0,7.841Z" style="fill:rgb(0,42,69);fill-rule:nonzero;"/>
            </g>
            <g transform="matrix(1,0,0,1,354.358,341.2344)">
                <path d="M0,25.329C-1.821,26.314 -4.43,27.114 -6.996,27.114C-10.232,27.114 -11.964,25.564 -11.964,22.921C-11.964,22.602 -11.919,22.283 -11.873,21.963L-9.685,9.611L-12.967,9.611L-12.055,4.46L-8.773,4.46L-7.862,-0.873L-1.252,-1.785L-2.346,4.46L2.941,4.46L2.068,9.611L-3.258,9.611L-5.218,20.687C-5.264,20.915 -5.309,21.143 -5.309,21.28C-5.309,21.599 -5.127,21.736 -4.671,21.736C-3.583,21.736 -2.361,21.285 -1.227,20.832L0,25.329Z" style="fill:rgb(0,42,69);fill-rule:nonzero;"/>
            </g>
            <g transform="matrix(1,0,0,1,369.0589,362.1042)">
                <path d="M0,-10.621C0,-11.396 -0.684,-11.897 -1.869,-11.897C-4.194,-11.897 -4.877,-10.575 -5.196,-8.752L-5.47,-7.202C-4.376,-7.476 -3.874,-7.567 -2.553,-7.977C-0.82,-8.479 0,-9.299 0,-10.621M-11.624,-8.479C-10.712,-13.584 -8.433,-16.866 -1.413,-16.866C2.781,-16.866 5.971,-15.043 5.971,-11.305C5.971,-6.974 3.738,-4.969 -1.732,-3.328C-4.421,-2.507 -4.467,-2.507 -6.382,-2.006L-6.655,-0.456C-6.792,0.364 -6.701,1.094 -5.515,1.094C-3.191,1.094 0.182,-0.046 3.191,-1.368L4.422,3.19C1.732,4.877 -2.507,6.245 -6.427,6.245C-11.031,6.245 -12.991,4.239 -12.991,0.456C-12.991,-0.365 -12.9,-1.277 -12.718,-2.234L-11.624,-8.479Z" style="fill:rgb(0,42,69);fill-rule:nonzero;"/>
            </g>
            <g transform="matrix(1,0,0,1,310.1925,370.6733)">
                <path d="M0,-18.324L-1.185,-11.623C-1.595,-9.481 -2.279,-7.703 -5.607,-7.703C-6.518,-7.703 -7.384,-7.749 -8.114,-7.886L-6.382,-17.777C-5.151,-18.871 -3.51,-20.056 -1.231,-20.056C-0.091,-20.056 0.228,-19.509 0,-18.324M1.14,-25.435C-2.051,-25.435 -4.33,-24.386 -5.926,-23.065L-5.614,-25.04L-6.357,-24.979L-11.66,-24.256L-17.185,7.111L-10.621,6.199L-9.071,-2.553C-8.478,-2.416 -7.065,-2.325 -6.382,-2.325C2.963,-2.325 4.33,-6.29 5.242,-11.578L6.29,-17.549C7.156,-22.518 5.971,-25.435 1.14,-25.435" style="fill:rgb(0,42,69);fill-rule:nonzero;"/>
            </g>
            <g transform="matrix(1,0,0,1,400.2192,355.5623)">
                <path d="M0,-5.106L11.624,-5.106L10.575,0.774L-1.048,0.774L-3.1,12.626L-9.8,12.626L-4.467,-17.732L14.814,-17.732L13.766,-11.807L1.185,-11.807L0,-5.106Z" style="fill:rgb(0,42,69);fill-rule:nonzero;"/>
            </g>
            <g transform="matrix(1,0,0,1,427.6594,360.245)">
                <path d="M0,-7.339C0,-8.98 -1.003,-9.846 -3.1,-9.846C-5.515,-9.846 -6.929,-8.615 -7.293,-6.427L-8.25,-0.912C-8.296,-0.593 -8.342,-0.274 -8.342,0C-8.342,1.595 -7.339,2.507 -5.242,2.507C-2.78,2.507 -1.413,1.276 -1.048,-0.912L-0.091,-6.427C-0.046,-6.746 0,-7.065 0,-7.339M-14.814,0.456C-14.814,-0.046 -14.769,-0.593 -14.678,-1.094L-13.766,-6.245C-12.763,-11.943 -9.983,-15.225 -2.233,-15.225C3.738,-15.225 6.427,-11.806 6.427,-7.84C6.427,-7.339 6.382,-6.792 6.29,-6.245L5.379,-1.094C4.422,4.239 1.869,7.886 -6.199,7.886C-11.851,7.886 -14.814,4.513 -14.814,0.456" style="fill:rgb(0,42,69);fill-rule:nonzero;"/>
            </g>
            <g transform="matrix(1,0,0,1,484.2367,346.65)">
                <path d="M0,20.193L0.869,15.439C2.555,16.032 4.832,16.592 7.248,16.592C9.39,16.592 9.527,15.954 9.709,14.905C9.891,13.903 9.253,13.356 6.746,12.034C2.097,9.572 1.915,7.931 2.507,4.604C3.373,-0.182 4.786,-1.459 10.94,-1.459C13.037,-1.459 15.726,-1.003 17.549,-0.41L16.656,4.418C15.015,3.962 12.444,3.601 10.894,3.601C8.98,3.601 8.706,3.829 8.478,5.014C8.296,6.062 8.524,6.29 10.666,7.43C15.772,10.165 16.546,11.122 15.908,14.632C14.997,19.646 13.538,21.652 6.883,21.652C4.832,21.652 1.96,21.059 0,20.193" style="fill:rgb(0,42,69);fill-rule:nonzero;"/>
            </g>
            <g transform="matrix(1,0,0,1,480.224,368.1883)">
                <path d="M0,-22.655C-2.553,-22.655 -5.607,-22.017 -8.98,-20.057C-9.481,-21.698 -10.621,-22.655 -12.809,-22.655C-15.361,-22.655 -18.096,-21.789 -21.56,-20.148L-21.18,-22.555L-27.163,-21.78L-30.951,0L-24.523,0L-22.016,-14.313C-20.284,-15.225 -17.458,-16.41 -16.273,-16.41C-15.635,-16.41 -15.407,-16.228 -15.407,-15.772C-15.407,-15.59 -15.452,-15.362 -15.498,-15.088L-18.142,0L-11.76,0L-9.253,-14.268C-7.43,-15.225 -4.649,-16.41 -3.464,-16.41C-2.826,-16.41 -2.598,-16.228 -2.598,-15.772C-2.598,-15.59 -2.644,-15.362 -2.689,-15.088L-5.333,0L1.094,0L3.829,-15.59C4.011,-16.501 4.057,-17.367 4.057,-18.142C4.057,-20.968 2.963,-22.655 0,-22.655" style="fill:rgb(0,42,69);fill-rule:nonzero;"/>
            </g>
            <g transform="matrix(1,0,0,1,290.5635,368.205)">
                <path d="M0,-22.655C-2.553,-22.655 -5.607,-22.017 -8.98,-20.057C-9.481,-21.698 -10.621,-22.655 -12.809,-22.655C-15.361,-22.655 -18.096,-21.789 -21.56,-20.148L-21.18,-22.555L-27.163,-21.78L-30.951,0L-24.523,0L-22.016,-14.313C-20.284,-15.225 -17.458,-16.41 -16.273,-16.41C-15.635,-16.41 -15.407,-16.228 -15.407,-15.772C-15.407,-15.59 -15.452,-15.362 -15.498,-15.088L-18.142,0L-11.76,0L-9.253,-14.268C-7.43,-15.225 -4.649,-16.41 -3.464,-16.41C-2.826,-16.41 -2.598,-16.228 -2.598,-15.772C-2.598,-15.59 -2.644,-15.362 -2.689,-15.088L-5.333,0L1.094,0L3.829,-15.59C4.011,-16.501 4.057,-17.367 4.057,-18.142C4.057,-20.968 2.963,-22.655 0,-22.655" style="fill:rgb(0,42,69);fill-rule:nonzero;"/>
            </g>
            <g transform="matrix(1,0,0,1,449.4386,368.1348)">
                <path d="M0,-22.609C-1.914,-21.789 -3.647,-20.877 -5.789,-19.601L-5.657,-22.514L-11.291,-21.745L-15.088,0L-8.661,0L-6.336,-13.082C-3.783,-14.678 -1.414,-15.827 1.412,-17.376L0,-22.609Z" style="fill:rgb(0,42,69);fill-rule:nonzero;"/>
            </g>
            <g transform="matrix(1,0,0,1,390.0949,368.2045)">
                <path d="M0,-22.609C-1.914,-21.788 -3.647,-20.877 -5.789,-19.6L-5.657,-22.514L-11.291,-21.745L-15.088,0L-8.661,0L-6.336,-13.082C-3.783,-14.678 -1.414,-15.827 1.412,-17.376L0,-22.609Z" style="fill:rgb(0,42,69);fill-rule:nonzero;"/>
            </g>
            <g transform="matrix(1,0,0,1,168.4303,345.2946)">
                <path d="M0,-7.163C0.302,-7.176 0.604,-7.184 0.909,-7.184C3.089,-7.184 5.193,-6.856 7.174,-6.247L7.174,-6.248C7.174,-6.248 13.896,-4.632 18.23,1.706C18.234,1.711 18.238,1.716 18.241,1.722C18.392,1.932 18.539,2.146 18.682,2.362C19.016,2.842 19.333,3.289 19.635,3.704C22.006,6.961 26.4,7.916 29.885,6.014C32.118,4.657 33.359,3.351 33.359,3.351L33.358,3.351C34.603,2.193 35.725,0.869 36.69,-0.611C37.116,-1.339 37.689,-2.359 37.689,-2.359L37.229,-3.279C33.35,-10.313 25.864,-15.079 17.264,-15.079C10.362,-15.079 4.178,-12.01 0,-7.163" style="fill:rgb(0,42,69);fill-rule:nonzero;"/>
            </g>
            <g transform="matrix(1,0,0,1,207.2999,375.9056)">
                <path d="M0,-30.457C-0.14,-30.189 -0.284,-29.923 -0.437,-29.659C-1.527,-27.771 -2.863,-26.114 -4.38,-24.702L-4.379,-24.702C-4.379,-24.702 -9.14,-19.689 -16.796,-19.103C-16.802,-19.103 -16.808,-19.102 -16.815,-19.102C-17.072,-19.076 -17.331,-19.056 -17.59,-19.04C-18.172,-18.991 -18.718,-18.94 -19.229,-18.886C-23.235,-18.462 -26.259,-15.134 -26.354,-11.164C-26.296,-8.552 -25.785,-6.824 -25.785,-6.824L-25.785,-6.825C-25.404,-5.168 -24.819,-3.534 -24.019,-1.958C-23.602,-1.226 -23.004,-0.219 -23.004,-0.219L-21.978,-0.158C-13.947,0 -6.077,-4.1 -1.776,-11.548C1.674,-17.525 2.109,-24.415 0,-30.457" style="fill:rgb(248,175,0);fill-rule:nonzero;"/>
            </g>
            <g transform="matrix(1,0,0,1,181.5431,340.3135)">
                <path d="M0,35.056C-0.162,34.801 -0.32,34.543 -0.472,34.279C-1.563,32.391 -2.33,30.405 -2.794,28.385L-2.794,28.386C-2.794,28.386 -4.756,21.756 -1.435,14.834C-1.432,14.828 -1.429,14.822 -1.426,14.816C-1.32,14.581 -1.208,14.347 -1.093,14.114C-0.844,13.585 -0.615,13.088 -0.406,12.618C1.229,8.937 -0.141,4.654 -3.531,2.586C-5.822,1.331 -7.574,0.909 -7.574,0.909L-7.574,0.91C-9.199,0.411 -10.906,0.101 -12.671,0.005C-13.514,0 -14.684,0.015 -14.684,0.015L-15.251,0.873C-19.403,7.749 -19.788,16.615 -15.487,24.063C-12.037,30.04 -6.287,33.861 0,35.056" style="fill:rgb(229,33,60);fill-rule:nonzero;"/>
            </g>
        </g>
    </g>
</svg>
