<?xml version="1.0" encoding="UTF-8" standalone="no"?>
<!DOCTYPE svg PUBLIC "-//W3C//DTD SVG 1.1//EN" "http://www.w3.org/Graphics/SVG/1.1/DTD/svg11.dtd">
<svg width="100%" height="100%" viewBox="0 0 2363 2363" version="1.1" xmlns="http://www.w3.org/2000/svg" xmlns:xlink="http://www.w3.org/1999/xlink" xml:space="preserve" xmlns:serif="http://www.serif.com/" style="fill-rule:evenodd;clip-rule:evenodd;stroke-linejoin:round;stroke-miterlimit:2;">
    <g transform="matrix(1,0,0,1,-15944.878125,-2657.479688)">
        <g id="Página-14" serif:id="Página 14" transform="matrix(4.166667,0,0,4.166667,15944.878125,2657.479688)">
            <rect x="0" y="0" width="566.929" height="566.929" style="fill:none;"/>
            <clipPath id="_clip1">
                <rect x="0" y="0" width="566.929" height="566.929"/>
            </clipPath>
            <g clip-path="url(#_clip1)">
                <g id="Capa-1" serif:id="Capa 1">
                    <g transform="matrix(1,0,0,1,-340.5637,25.9226)">
                        <path d="M0,619.456C0.032,619.328 0.073,619.203 0.111,619.075L0.262,619.299C0.262,619.299 0.594,617.748 1.341,614.832C35.974,497.665 109.05,412.071 158.018,365.028C189.464,335.293 226.893,306.062 271.351,279.321C380.168,213.877 457.664,197.862 514.16,189.723C523.884,188.323 540.511,187.657 542.234,187.622C542.283,187.622 542.335,187.619 542.385,187.616C542.382,187.619 542.382,187.622 542.379,187.622C542.888,187.602 543.4,187.587 543.912,187.57C544.174,187.564 544.436,187.555 544.698,187.55C545.268,187.538 545.836,187.532 546.409,187.529L546.438,187.529C550.916,187.614 555.176,187.884 559.229,188.321L559.238,188.321C560.568,188.489 561.892,188.681 563.207,188.897C563.489,188.946 563.775,188.993 564.057,189.042C564.918,189.194 565.776,189.357 566.632,189.525C567.208,189.642 567.781,189.758 568.355,189.886C568.776,189.976 569.198,190.072 569.62,190.171C570.546,190.387 571.465,190.613 572.382,190.855C572.626,190.919 572.871,190.986 573.115,191.053C574.151,191.335 575.184,191.626 576.208,191.94L576.205,191.937C576.205,191.937 607.904,199.558 628.343,229.444C628.363,229.468 628.377,229.491 628.395,229.517C628.444,229.587 628.491,229.654 628.537,229.724C628.738,230.006 629.128,230.565 629.623,231.275C629.908,231.694 630.196,232.113 630.475,232.535C631.971,234.691 633.397,236.701 634.759,238.578C634.825,238.674 634.89,238.759 634.948,238.837C634.953,238.846 634.962,238.858 634.968,238.866C646.147,254.224 666.868,258.725 683.302,249.761C693.83,243.362 699.684,237.202 699.684,237.202L699.678,237.202C705.55,231.74 710.84,225.499 715.391,218.518C716.549,216.54 717.934,214.104 718.903,212.393L718.938,212.39C750.765,157.494 781.452,17.72 692.02,-179.856C654.731,-262.997 593.588,-322.563 529.532,-364.924C393.195,-466.675 176.26,-557.766 -131.717,-575.126C-358.193,-369.393 -500.391,-72.529 -500.391,257.541C-500.391,648.624 -300.766,993.083 2.142,1194.582C-10.408,1153.155 -73.105,920.472 0,619.456" style="fill:rgb(222,0,55);fill-rule:nonzero;"/>
                    </g>
                    <g transform="matrix(1,0,0,1,-218.6474,447.6462)">
                        <path d="M0,-1170.657C43.894,-1152.189 383.38,-1006.991 501.188,-885.426C501.281,-885.33 501.372,-885.234 501.462,-885.138L501.194,-885.118C501.194,-885.118 502.372,-884.059 504.523,-881.949C525.537,-859.832 543.648,-836.618 559.25,-813.212L559.075,-813.139C605.911,-742.845 630.103,-670.813 642.295,-621.364C652.322,-579.263 658.924,-532.235 659.85,-480.363C662.119,-353.403 637.241,-278.279 616.043,-225.286C612.391,-216.161 604.657,-201.429 603.825,-199.921C603.801,-199.875 603.778,-199.831 603.755,-199.788C603.752,-199.79 603.752,-199.793 603.752,-199.796C603.516,-199.342 603.272,-198.891 603.03,-198.443C602.905,-198.213 602.783,-197.981 602.655,-197.751C602.381,-197.253 602.102,-196.756 601.82,-196.261C601.814,-196.249 601.808,-196.24 601.802,-196.232C599.489,-192.397 597.126,-188.841 594.723,-185.55C594.72,-185.547 594.72,-185.544 594.717,-185.544C593.908,-184.473 593.079,-183.426 592.235,-182.396C592.052,-182.175 591.866,-181.954 591.682,-181.732C591.121,-181.057 590.553,-180.397 589.977,-179.742C589.59,-179.303 589.2,-178.863 588.804,-178.43C588.513,-178.113 588.22,-177.793 587.926,-177.478C587.277,-176.786 586.619,-176.099 585.953,-175.427C585.772,-175.246 585.592,-175.072 585.412,-174.892C584.649,-174.135 583.881,-173.387 583.098,-172.66L583.101,-172.66C583.101,-172.66 560.652,-149.018 524.551,-146.256C524.522,-146.254 524.493,-146.251 524.464,-146.248C524.379,-146.242 524.298,-146.236 524.213,-146.23C523.867,-146.198 523.189,-146.14 522.325,-146.064C521.819,-146.027 521.315,-145.992 520.809,-145.957C518.193,-145.741 515.74,-145.511 513.433,-145.267C513.319,-145.258 513.208,-145.247 513.112,-145.238C513.101,-145.235 513.089,-145.235 513.081,-145.232C494.19,-143.23 479.929,-127.538 479.478,-108.822C479.755,-96.505 482.164,-88.355 482.164,-88.355L482.167,-88.358C483.96,-80.545 486.718,-72.84 490.489,-65.408C491.624,-63.418 493.038,-61.003 494.036,-59.309L494.024,-59.275C496.25,-55.399 498.846,-51.319 501.823,-47.083C539.903,8.901 645.484,95.534 848.624,115.623C874.151,118.146 903.732,117.358 936.528,112.58C971.131,108.343 1004.021,99.861 1034.849,88.606C1200.663,33.047 1412.954,-110.594 1602.305,-399.352C1494.181,-907.57 1042.77,-1288.803 502.314,-1288.803C321.78,-1288.803 151.186,-1246.259 0,-1170.657" style="fill:rgb(0,42,69);fill-rule:nonzero;"/>
                    </g>
                    <g transform="matrix(1,0,0,1,1407.8838,1318.0743)">
                        <path d="M0,-1004.268C-61.021,-937.82 -127.547,-876.834 -198.476,-828.314C-298.578,-763.336 -415.644,-696.056 -498.927,-675.138C-499.055,-675.106 -499.183,-675.074 -499.314,-675.042L-499.195,-675.286C-499.195,-675.286 -500.702,-674.797 -503.603,-673.988C-622.389,-645.394 -733.051,-665.882 -798.279,-684.772C-839.752,-697.138 -883.78,-714.935 -929.167,-740.069C-1040.25,-801.585 -1092.868,-860.691 -1128.163,-905.545C-1134.242,-913.271 -1143.131,-927.334 -1144.024,-928.809C-1144.048,-928.852 -1144.077,-928.896 -1144.103,-928.937C-1144.1,-928.937 -1144.097,-928.934 -1144.097,-928.934C-1144.368,-929.367 -1144.635,-929.801 -1144.906,-930.237C-1145.043,-930.462 -1145.182,-930.683 -1145.319,-930.907C-1145.613,-931.393 -1145.904,-931.884 -1146.192,-932.376C-1146.198,-932.385 -1146.201,-932.397 -1146.207,-932.405C-1148.372,-936.325 -1150.269,-940.148 -1151.916,-943.876L-1151.918,-943.881C-1152.442,-945.121 -1152.934,-946.363 -1153.403,-947.609C-1153.504,-947.879 -1153.603,-948.15 -1153.705,-948.421C-1154.005,-949.241 -1154.293,-950.065 -1154.575,-950.891C-1154.759,-951.447 -1154.945,-952.003 -1155.122,-952.561C-1155.253,-952.974 -1155.384,-953.388 -1155.509,-953.798C-1155.786,-954.712 -1156.05,-955.619 -1156.298,-956.536C-1156.365,-956.78 -1156.429,-957.025 -1156.493,-957.269C-1156.766,-958.308 -1157.031,-959.347 -1157.27,-960.391L-1157.272,-960.389C-1157.272,-960.389 -1166.52,-991.648 -1150.859,-1024.293C-1150.848,-1024.322 -1150.833,-1024.345 -1150.822,-1024.374C-1150.787,-1024.45 -1150.752,-1024.526 -1150.717,-1024.599C-1150.568,-1024.919 -1150.28,-1025.533 -1149.914,-1026.315C-1149.695,-1026.772 -1149.474,-1027.232 -1149.247,-1027.686C-1148.13,-1030.057 -1147.103,-1032.298 -1146.157,-1034.416C-1146.108,-1034.521 -1146.064,-1034.623 -1146.026,-1034.71C-1146.02,-1034.722 -1146.015,-1034.73 -1146.012,-1034.742C-1138.301,-1052.099 -1144.76,-1072.296 -1160.744,-1082.043C-1171.548,-1087.968 -1179.812,-1089.952 -1179.812,-1089.952L-1179.809,-1089.949C-1187.473,-1092.303 -1195.524,-1093.767 -1203.846,-1094.215C-1206.139,-1094.229 -1208.938,-1094.212 -1210.903,-1094.195L-1210.929,-1094.224C-1240.815,-1094.279 -1286.746,-1084.595 -1340.251,-1055.975C-1400.841,-1024.054 -1471.234,-967.838 -1538.77,-873.666C-1546.277,-863.199 -1553.575,-851.423 -1560.532,-838.396C-1591.562,-783.739 -1607.333,-725.768 -1613.711,-669.976C-1640.845,-499.477 -1616.554,-255.321 -1469.969,35.857C-1361.038,71.016 -1244.845,90.011 -1124.218,90.011C-513.252,90.011 -16.079,-397.184 0,-1004.268" style="fill:rgb(246,184,0);fill-rule:nonzero;"/>
                    </g>
                    <g transform="matrix(1,0,0,1,201.8094,247.2074)">
                        <path d="M0,-33.777C1.423,-33.838 2.849,-33.873 4.289,-33.873C14.569,-33.873 24.489,-32.328 33.829,-29.462L33.826,-29.465C33.826,-29.465 65.525,-21.841 85.963,8.042C85.981,8.068 85.998,8.092 86.016,8.115C86.729,9.107 87.418,10.117 88.096,11.135C89.668,13.399 91.163,15.506 92.589,17.464C103.768,32.825 124.486,37.329 140.923,28.358C151.451,21.96 157.305,15.8 157.305,15.8L157.302,15.8C163.171,10.341 168.461,4.1 173.012,-2.884C175.02,-6.315 177.72,-11.127 177.72,-11.127L175.553,-15.463C157.262,-48.631 121.963,-71.106 81.407,-71.106C48.864,-71.104 19.702,-56.633 0,-33.777" style="fill:rgb(0,42,69);fill-rule:nonzero;"/>
                    </g>
                    <g transform="matrix(1,0,0,1,385.0982,391.5541)">
                        <path d="M0,-143.621C-0.661,-142.358 -1.341,-141.104 -2.06,-139.862C-7.202,-130.955 -13.498,-123.139 -20.654,-116.484L-20.651,-116.484C-20.651,-116.484 -43.1,-92.842 -79.201,-90.084C-79.23,-90.084 -79.259,-90.081 -79.291,-90.078C-80.505,-89.959 -81.724,-89.86 -82.943,-89.784C-85.69,-89.554 -88.262,-89.316 -90.674,-89.06C-109.562,-87.058 -123.823,-71.365 -124.274,-52.647C-123.997,-40.33 -121.588,-32.18 -121.588,-32.18L-121.588,-32.182C-119.793,-24.373 -117.031,-16.668 -113.26,-9.236C-111.296,-5.782 -108.476,-1.036 -108.476,-1.036L-103.637,-0.745C-65.767,0 -28.656,-19.336 -8.377,-54.457C7.894,-82.641 9.943,-115.131 0,-143.621" style="fill:rgb(246,184,0);fill-rule:nonzero;"/>
                    </g>
                    <g transform="matrix(1,0,0,1,263.6422,223.7188)">
                        <path d="M0,165.304C-0.762,164.102 -1.51,162.886 -2.226,161.641C-7.368,152.737 -10.987,143.373 -13.173,133.849L-13.176,133.852C-13.176,133.852 -22.426,102.59 -6.765,69.948C-6.751,69.922 -6.739,69.893 -6.727,69.866C-6.221,68.752 -5.697,67.649 -5.153,66.552C-3.978,64.061 -2.898,61.713 -1.915,59.499C5.796,42.139 -0.664,21.942 -16.647,12.195C-27.454,6.276 -35.715,4.286 -35.715,4.286L-35.715,4.289C-43.376,1.935 -51.427,0.477 -59.749,0.023C-63.724,0 -69.244,0.07 -69.244,0.07L-71.912,4.114C-91.495,36.538 -93.305,78.345 -73.03,113.469C-56.758,141.65 -29.645,159.668 0,165.304" style="fill:rgb(222,0,55);fill-rule:nonzero;"/>
                    </g>
                </g>
            </g>
        </g>
    </g>
</svg>
