<?xml version="1.0" encoding="UTF-8" standalone="no"?>
<!DOCTYPE svg PUBLIC "-//W3C//DTD SVG 1.1//EN" "http://www.w3.org/Graphics/SVG/1.1/DTD/svg11.dtd">
<svg width="100%" height="100%" viewBox="0 0 1442 224" version="1.1" xmlns="http://www.w3.org/2000/svg" xmlns:xlink="http://www.w3.org/1999/xlink" xml:space="preserve" xmlns:serif="http://www.serif.com/" style="fill-rule:evenodd;clip-rule:evenodd;stroke-linejoin:round;stroke-miterlimit:2;">
    <g transform="matrix(1,0,0,1,-3526.720833,-1770.541667)">
        <g transform="matrix(4.166667,0,0,4.166667,0,0)">
            <g transform="matrix(1,0,0,1,0,135.459)">
                <path d="M849.818,339.665L1189.008,339.665L1189.008,292.876L849.818,292.876L849.818,339.665ZM1192.413,343.07L846.413,343.07L846.413,289.471L1192.413,289.471L1192.413,343.07Z" style="fill:rgb(47,24,96);fill-rule:nonzero;"/>
            </g>
        </g>
        <g transform="matrix(4.166667,0,0,4.166667,0,0)">
            <g transform="matrix(1,0,0,1,879.342,455.5806)">
                <path d="M0,-11.016C0.08,-11.456 0.12,-11.855 0.12,-12.134C0.12,-13.65 -0.678,-14.449 -2.914,-14.449L-8.342,-14.449L-9.978,-5.149L-4.63,-5.149C-1.677,-5.149 -0.878,-6.067 -0.479,-8.302L0,-11.016ZM-10.736,-0.878L-12.253,7.783L-17.203,7.783L-12.533,-18.799L-2.674,-18.799C2.794,-18.799 5.149,-16.684 5.149,-13.092C5.149,-12.573 5.109,-11.895 4.989,-11.255L4.391,-7.863C3.632,-3.433 1.876,-0.878 -4.949,-0.878L-10.736,-0.878Z" style="fill:rgb(47,24,96);fill-rule:nonzero;"/>
            </g>
        </g>
        <g transform="matrix(4.166667,0,0,4.166667,0,0)">
            <g transform="matrix(1,0,0,1,895.9832,459.0121)">
                <path d="M0,-11.095C-2.275,-9.858 -3.712,-8.94 -5.788,-7.623L-7.903,4.351L-12.692,4.351L-9.34,-14.687L-5.149,-15.406L-5.348,-12.572C-3.992,-13.57 -1.996,-14.767 -0.36,-15.446L0,-11.095Z" style="fill:rgb(47,24,96);fill-rule:nonzero;"/>
            </g>
        </g>
        <g transform="matrix(4.166667,0,0,4.166667,0,0)">
            <g transform="matrix(1,0,0,1,899.4939,462.685)">
                <path d="M0,-26.702L4.909,-27.38L3.951,-21.952L-0.958,-21.234L0,-26.702ZM-1.477,-18.4L3.432,-19.079L-0.04,0.678L-4.829,0.678L-1.477,-18.4Z" style="fill:rgb(47,24,96);fill-rule:nonzero;"/>
            </g>
        </g>
        <g transform="matrix(4.166667,0,0,4.166667,0,0)">
            <g transform="matrix(1,0,0,1,917.2537,457.3758)">
                <path d="M0,-7.862C0.04,-8.061 0.04,-8.302 0.04,-8.381C0.04,-8.9 -0.2,-9.219 -0.958,-9.219C-2.235,-9.219 -4.949,-8.022 -6.745,-6.944L-9.021,5.987L-13.81,5.987L-10.458,-13.051L-6.307,-13.77L-6.386,-11.415C-3.832,-12.811 -0.799,-13.849 1.476,-13.849C4.151,-13.849 5.029,-12.093 5.029,-9.977C5.029,-9.219 4.949,-8.701 4.829,-8.061L2.354,5.987L-2.435,5.987L0,-7.862Z" style="fill:rgb(47,24,96);fill-rule:nonzero;"/>
            </g>
        </g>
        <g transform="matrix(4.166667,0,0,4.166667,0,0)">
            <g transform="matrix(1,0,0,1,924.754,442.9284)">
                <path d="M0,16.124L1.996,4.829L-1.117,4.829L-0.399,0.997L2.674,0.997L3.553,-4.032L8.461,-4.71L7.464,0.997L12.413,0.997L11.655,4.829L6.785,4.829L4.829,15.924C4.71,16.603 4.909,16.923 5.628,16.923C6.586,16.923 7.863,16.483 8.981,16.044L10.018,19.318C8.381,20.195 6.227,20.834 3.912,20.834C0.878,20.834 -0.479,18.918 0,16.124" style="fill:rgb(47,24,96);fill-rule:nonzero;"/>
            </g>
        </g>
        <g transform="matrix(4.166667,0,0,4.166667,0,0)">
            <g transform="matrix(1,0,0,1,940.5978,462.685)">
                <path d="M0,-26.702L4.909,-27.38L3.951,-21.952L-0.958,-21.234L0,-26.702ZM-1.477,-18.4L3.432,-19.079L-0.04,0.678L-4.829,0.678L-1.477,-18.4Z" style="fill:rgb(47,24,96);fill-rule:nonzero;"/>
            </g>
        </g>
        <g transform="matrix(4.166667,0,0,4.166667,0,0)">
            <g transform="matrix(1,0,0,1,958.3577,457.3758)">
                <path d="M0,-7.862C0.04,-8.061 0.04,-8.302 0.04,-8.381C0.04,-8.9 -0.2,-9.219 -0.958,-9.219C-2.235,-9.219 -4.949,-8.022 -6.745,-6.944L-9.021,5.987L-13.81,5.987L-10.458,-13.051L-6.307,-13.77L-6.386,-11.415C-3.832,-12.811 -0.799,-13.849 1.476,-13.849C4.151,-13.849 5.029,-12.093 5.029,-9.977C5.029,-9.219 4.949,-8.701 4.829,-8.061L2.354,5.987L-2.435,5.987L0,-7.862Z" style="fill:rgb(47,24,96);fill-rule:nonzero;"/>
            </g>
        </g>
        <g transform="matrix(4.166667,0,0,4.166667,0,0)">
            <g transform="matrix(1,0,0,1,977.9517,467.3142)">
                <path d="M0,-19.477C-0.878,-19.637 -1.836,-19.756 -2.834,-19.756C-5.907,-19.756 -6.705,-18.479 -7.144,-15.925L-8.222,-9.898C-8.262,-9.658 -8.262,-9.539 -8.262,-9.419C-8.262,-8.701 -7.783,-8.382 -6.904,-8.382C-5.388,-8.382 -3.392,-9.06 -1.676,-10.177L0,-19.477ZM1.517,-0.998C0.759,3.233 -1.277,4.311 -5.707,4.311C-7.583,4.311 -11.375,3.792 -14.408,2.794L-13.49,-0.758C-11.056,-0.039 -8.262,0.559 -5.827,0.559C-3.831,0.559 -3.432,-0.039 -3.153,-1.716L-2.395,-5.987C-4.55,-4.789 -6.585,-4.35 -8.541,-4.35C-11.894,-4.35 -13.051,-6.146 -13.051,-8.781C-13.051,-9.419 -12.972,-10.097 -12.852,-10.816L-11.973,-15.686C-10.896,-21.752 -9.339,-23.788 -2.355,-23.788C0.16,-23.788 3.273,-23.109 5.268,-22.311L1.517,-0.998Z" style="fill:rgb(47,24,96);fill-rule:nonzero;"/>
            </g>
        </g>
        <g transform="matrix(4.166667,0,0,4.166667,0,0)">
            <g transform="matrix(1,0,0,1,1001.0577,452.1072)">
                <path d="M0,11.256C-2.235,15.647 -3.952,17.762 -9.819,19.757L-11.136,16.046C-7.783,14.888 -6.466,13.651 -4.949,11.256L-6.586,11.256L-9.38,-7.702L-4.63,-8.381L-2.794,7.025L1.796,-3.312C2.235,-4.35 2.355,-5.188 2.355,-5.986C2.355,-6.625 2.275,-7.183 2.076,-7.822L6.745,-8.501C6.984,-7.742 7.105,-6.784 7.105,-6.066C7.105,-5.108 6.944,-3.751 6.426,-2.593L0,11.256Z" style="fill:rgb(47,24,96);fill-rule:nonzero;"/>
            </g>
        </g>
        <g transform="matrix(4.166667,0,0,4.166667,0,0)">
            <g transform="matrix(1,0,0,1,1021.1717,456.3784)">
                <path d="M0,-5.468C0.04,-5.707 0.08,-6.106 0.08,-6.346C0.08,-7.943 -0.918,-8.82 -3.113,-8.82C-5.628,-8.82 -6.985,-7.663 -7.424,-5.268L-8.342,-0.04C-8.381,0.199 -8.421,0.559 -8.421,0.839C-8.421,2.395 -7.544,3.353 -5.229,3.353C-2.714,3.353 -1.357,2.235 -0.958,-0.04L0,-5.468ZM-13.171,1.038C-13.171,0.519 -13.131,-0 -13.051,-0.519L-12.213,-5.189C-11.336,-9.978 -8.981,-12.852 -2.475,-12.852C2.515,-12.852 4.869,-10.058 4.869,-6.625C4.869,-6.146 4.83,-5.707 4.75,-5.229L3.831,-0.04C3.033,4.51 0.878,7.384 -5.947,7.384C-10.976,7.384 -13.171,4.47 -13.171,1.038" style="fill:rgb(47,24,96);fill-rule:nonzero;"/>
            </g>
        </g>
        <g transform="matrix(4.166667,0,0,4.166667,0,0)">
            <g transform="matrix(1,0,0,1,1032.4647,449.5935)">
                <path d="M0,8.182C-0.04,8.461 -0.04,8.621 -0.04,8.701C-0.04,9.219 0.199,9.539 0.958,9.539C2.235,9.539 4.949,8.342 6.745,7.264L8.94,-5.308L13.849,-5.987L10.377,13.77L6.306,13.77L6.386,11.734C3.831,13.131 0.798,14.169 -1.477,14.169C-4.151,14.169 -5.029,12.412 -5.029,10.297C-5.029,9.539 -4.949,9.02 -4.829,8.382L-2.435,-5.308L2.475,-5.987L0,8.182Z" style="fill:rgb(47,24,96);fill-rule:nonzero;"/>
            </g>
        </g>
        <g transform="matrix(4.166667,0,0,4.166667,0,0)">
            <g transform="matrix(1,0,0,1,1059.5223,459.0121)">
                <path d="M0,-11.095C-2.275,-9.858 -3.712,-8.94 -5.787,-7.623L-7.903,4.351L-12.692,4.351L-9.34,-14.687L-5.149,-15.406L-5.348,-12.572C-3.991,-13.57 -1.996,-14.767 -0.359,-15.446L0,-11.095Z" style="fill:rgb(47,24,96);fill-rule:nonzero;"/>
            </g>
        </g>
        <g transform="matrix(4.166667,0,0,4.166667,0,0)">
            <g transform="matrix(1,0,0,1,1078.4387,451.2693)">
                <path d="M0,-3.472C-0.878,-3.671 -2.155,-3.711 -2.834,-3.711C-5.907,-3.711 -6.706,-2.474 -7.145,0.08L-8.342,6.945C-8.381,7.185 -8.381,7.304 -8.381,7.424C-8.381,8.142 -7.903,8.462 -7.025,8.462C-4.989,8.462 -2.634,6.825 -1.597,5.548L0,-3.472ZM2.036,12.094L-2.036,12.094L-2.036,9.938C-3.712,11.455 -5.787,12.493 -8.661,12.493C-12.014,12.493 -13.171,10.697 -13.171,8.062C-13.171,7.424 -13.091,6.746 -12.972,6.027L-11.974,0.359C-11.095,-4.63 -10.178,-7.743 -2.515,-7.743C-1.796,-7.743 -0.399,-7.623 0.678,-7.384L2.076,-15.286L6.985,-15.965L2.036,12.094Z" style="fill:rgb(47,24,96);fill-rule:nonzero;"/>
            </g>
        </g>
        <g transform="matrix(4.166667,0,0,4.166667,0,0)">
            <g transform="matrix(1,0,0,1,1097.1555,459.0121)">
                <path d="M0,-11.095C-2.275,-9.858 -3.712,-8.94 -5.788,-7.623L-7.903,4.351L-12.692,4.351L-9.34,-14.687L-5.149,-15.406L-5.348,-12.572C-3.992,-13.57 -1.996,-14.767 -0.36,-15.446L0,-11.095Z" style="fill:rgb(47,24,96);fill-rule:nonzero;"/>
            </g>
        </g>
        <g transform="matrix(4.166667,0,0,4.166667,0,0)">
            <g transform="matrix(1,0,0,1,1107.85,458.4939)">
                <path d="M0,-9.699C0,-10.577 -0.758,-11.215 -2.036,-11.215C-4.231,-11.215 -5.308,-9.859 -5.628,-8.022L-5.987,-6.027C-5.308,-6.226 -5.029,-6.306 -3.073,-6.905C-0.918,-7.584 0,-8.421 0,-9.699M-6.905,-0.798C-7.105,0.319 -7.145,1.277 -5.388,1.277C-3.313,1.277 -0.439,0.319 2.076,-0.958L3.113,2.714C0.758,4.151 -2.834,5.268 -6.067,5.268C-11.216,5.268 -12.253,2.395 -11.535,-1.677L-10.497,-7.584C-9.659,-12.174 -7.504,-14.967 -1.637,-14.967C2.076,-14.967 4.59,-13.051 4.59,-9.898C4.59,-6.426 2.315,-4.431 -2.993,-2.794C-5.348,-2.076 -5.827,-1.956 -6.745,-1.717L-6.905,-0.798Z" style="fill:rgb(47,24,96);fill-rule:nonzero;"/>
            </g>
        </g>
        <g transform="matrix(4.166667,0,0,4.166667,0,0)">
            <g transform="matrix(1,0,0,1,1125.808,459.4512)">
                <path d="M0,-11.614C-0.878,-11.774 -1.756,-11.893 -2.754,-11.893C-5.827,-11.893 -6.426,-10.616 -6.865,-8.062L-8.062,-1.237C-8.102,-0.997 -8.102,-0.878 -8.102,-0.758C-8.102,-0.04 -7.663,0.28 -6.785,0.28C-5.268,0.28 -3.073,-1.157 -1.596,-2.634L0,-11.614ZM2.036,3.912L-1.995,3.912L-2.035,1.757C-3.712,3.274 -5.787,4.311 -8.381,4.311C-11.734,4.311 -12.892,2.515 -12.892,-0.12C-12.892,-0.758 -12.812,-1.436 -12.692,-2.155L-11.694,-7.823C-10.776,-13.091 -9.539,-15.925 -2.035,-15.925C-0.16,-15.925 3.313,-15.326 5.308,-14.687L2.036,3.912Z" style="fill:rgb(47,24,96);fill-rule:nonzero;"/>
            </g>
        </g>
        <g transform="matrix(4.166667,0,0,4.166667,0,0)">
            <g transform="matrix(1,0,0,1,1156.8179,457.3758)">
                <path d="M0,-7.862C0.04,-8.061 0.04,-8.302 0.04,-8.381C0.04,-8.9 -0.199,-9.219 -0.958,-9.219C-2.235,-9.219 -4.949,-8.022 -6.745,-6.944L-9.021,5.987L-13.81,5.987L-11.375,-7.862C-11.335,-8.061 -11.335,-8.302 -11.335,-8.381C-11.335,-8.9 -11.575,-9.219 -12.333,-9.219C-13.611,-9.219 -16.325,-8.022 -18.121,-6.944L-20.395,5.987L-25.185,5.987L-21.832,-13.051L-17.681,-13.77L-17.761,-11.415C-15.207,-12.811 -12.173,-13.849 -9.898,-13.849C-7.863,-13.849 -6.865,-12.811 -6.506,-11.375C-3.752,-12.971 -0.759,-13.849 1.476,-13.849C4.151,-13.849 5.029,-12.093 5.029,-9.977C5.029,-9.299 4.949,-8.661 4.83,-8.061L2.355,5.987L-2.435,5.987L0,-7.862Z" style="fill:rgb(47,24,96);fill-rule:nonzero;"/>
            </g>
        </g>
        <g transform="matrix(4.166667,0,0,4.166667,0,0)">
            <g transform="matrix(1,0,0,1,1162.5212,444.7632)">
                <path d="M0,17.762L0.918,14.13C2.435,14.648 4.391,15.128 6.346,15.128C8.462,15.128 8.901,14.769 9.14,13.411C9.34,12.214 9.14,11.775 6.267,10.338C2.155,8.303 1.717,6.825 2.235,3.872C2.914,-0.039 4.47,-1.237 9.579,-1.237C11.415,-1.237 13.81,-0.798 15.366,-0.278L14.568,3.393C13.091,2.954 10.896,2.635 9.539,2.635C7.623,2.635 7.065,2.715 6.825,4.111C6.586,5.429 6.945,5.708 9.061,6.865C13.531,9.3 14.329,10.059 13.81,13.132C13.051,17.483 11.575,18.999 6.107,18.999C4.311,18.999 1.637,18.48 0,17.762" style="fill:rgb(47,24,96);fill-rule:nonzero;"/>
            </g>
        </g>
    </g>
</svg>
