<?xml version="1.0" encoding="UTF-8" standalone="no"?>
<!DOCTYPE svg PUBLIC "-//W3C//DTD SVG 1.1//EN" "http://www.w3.org/Graphics/SVG/1.1/DTD/svg11.dtd">
<svg width="100%" height="100%" viewBox="0 0 965 965" version="1.1" xmlns="http://www.w3.org/2000/svg" xmlns:xlink="http://www.w3.org/1999/xlink" xml:space="preserve" xmlns:serif="http://www.serif.com/" style="fill-rule:evenodd;clip-rule:evenodd;stroke-linejoin:round;stroke-miterlimit:2;">
    <g transform="matrix(1,0,0,1,-2350.999167,-863.498333)">
        <g transform="matrix(4.166667,0,0,4.166667,0,0)">
            <g transform="matrix(1,0,0,1,677.9088,221.2316)">
                <path d="M0,203.537L-4.589,203.264C-4.589,203.264 -7.26,198.764 -9.125,195.49C-12.7,188.444 -15.317,181.139 -17.018,173.733L-17.02,173.736C-17.02,173.736 -19.303,166.01 -19.565,154.331C-19.137,136.586 -5.617,121.708 12.291,119.81C14.575,119.568 17.014,119.341 19.619,119.123C20.776,119.051 21.931,118.96 23.083,118.846C23.111,118.843 23.139,118.841 23.168,118.839C57.394,116.223 78.678,93.81 78.678,93.81L78.675,93.809C85.458,87.5 91.43,80.088 96.304,71.647C96.984,70.467 97.63,69.278 98.256,68.081C107.683,95.092 105.741,125.896 90.314,152.617C71.09,185.914 35.903,204.245 0,203.537M-86.132,152.701C-105.357,119.403 -103.639,79.766 -85.074,49.027L-82.543,45.189C-82.543,45.189 -77.31,45.125 -73.542,45.148C-65.653,45.575 -58.019,46.96 -50.754,49.191L-50.755,49.188C-50.755,49.188 -42.922,51.073 -32.678,56.685C-17.524,65.929 -11.399,85.076 -18.709,101.534C-19.642,103.634 -20.665,105.859 -21.778,108.224C-22.295,109.262 -22.793,110.308 -23.271,111.363C-23.283,111.389 -23.295,111.414 -23.307,111.44C-38.155,142.388 -29.386,172.028 -29.386,172.028L-29.385,172.025C-27.311,181.054 -23.879,189.931 -19.005,198.373C-18.324,199.553 -17.617,200.707 -16.894,201.847C-44.999,196.505 -70.705,179.421 -86.132,152.701M1.664,-0.02C40.113,-0.02 73.582,21.287 90.92,52.734L92.978,56.844C92.978,56.844 90.416,61.408 88.513,64.66C84.199,71.279 79.182,77.197 73.618,82.374L73.621,82.374C73.621,82.374 68.072,88.215 58.089,94.281C42.507,102.783 22.863,98.513 12.265,83.952C10.913,82.096 9.497,80.097 8.006,77.951C7.365,76.984 6.708,76.03 6.034,75.089C6.017,75.065 6.001,75.042 5.985,75.018C-13.394,46.686 -43.446,39.46 -43.446,39.46L-43.445,39.463C-52.301,36.744 -61.705,35.277 -71.452,35.277C-72.814,35.277 -74.168,35.313 -75.516,35.369C-56.838,13.7 -29.189,-0.02 1.664,-0.02M2.091,-13.992C-61.842,-13.992 -113.669,37.835 -113.669,101.768C-113.669,165.701 -61.842,217.529 2.091,217.529C66.024,217.529 117.852,165.701 117.852,101.768C117.852,37.835 66.024,-13.992 2.091,-13.992" style="fill:white;fill-rule:nonzero;"/>
            </g>
        </g>
        <g transform="matrix(4.166667,0,0,4.166667,0,0)">
            <g transform="matrix(1,0,0,1,602.3925,288.6248)">
                <path d="M0,-32.024C1.348,-32.08 2.702,-32.115 4.064,-32.115C13.811,-32.115 23.216,-30.649 32.072,-27.93L32.07,-27.933C32.07,-27.933 62.123,-20.707 81.501,7.625C81.518,7.649 81.533,7.672 81.55,7.696C82.225,8.637 82.881,9.592 83.522,10.557C85.013,12.704 86.429,14.703 87.781,16.56C98.379,31.12 118.023,35.39 133.605,26.888C143.588,20.822 149.137,14.981 149.137,14.981L149.134,14.98C154.698,9.804 159.715,3.886 164.029,-2.733C165.933,-5.985 168.494,-10.549 168.494,-10.549L166.436,-14.66C149.098,-46.107 115.63,-67.414 77.181,-67.414C46.327,-67.414 18.679,-53.694 0,-32.024" style="fill:rgb(0,42,69);fill-rule:nonzero;"/>
            </g>
        </g>
        <g transform="matrix(4.166667,0,0,4.166667,0,0)">
            <g transform="matrix(1,0,0,1,776.1648,425.4767)">
                <path d="M0,-136.164C-0.625,-134.967 -1.271,-133.778 -1.953,-132.597C-6.826,-124.157 -12.798,-116.745 -19.581,-110.436L-19.578,-110.435C-19.578,-110.435 -40.862,-88.022 -75.088,-85.406C-75.116,-85.404 -75.144,-85.402 -75.173,-85.399C-76.325,-85.285 -77.48,-85.194 -78.637,-85.122C-81.242,-84.904 -83.681,-84.677 -85.965,-84.435C-103.874,-82.537 -117.393,-67.659 -117.822,-49.914C-117.559,-38.235 -115.276,-30.51 -115.276,-30.51L-115.274,-30.512C-113.573,-23.105 -110.956,-15.801 -107.381,-8.756C-105.517,-5.481 -102.845,-0.981 -102.845,-0.981L-98.256,-0.708C-62.353,0 -27.166,-18.331 -7.942,-51.628C7.485,-78.349 9.427,-109.153 0,-136.164" style="fill:rgb(248,175,0);fill-rule:nonzero;"/>
            </g>
        </g>
        <g transform="matrix(4.166667,0,0,4.166667,0,0)">
            <g transform="matrix(1,0,0,1,661.0153,266.3576)">
                <path d="M0,156.721C-0.723,155.581 -1.431,154.427 -2.112,153.247C-6.986,144.806 -10.417,135.928 -12.491,126.899L-12.493,126.902C-12.493,126.902 -21.261,97.262 -6.414,66.314C-6.401,66.288 -6.389,66.263 -6.377,66.237C-5.899,65.182 -5.401,64.136 -4.885,63.098C-3.771,60.733 -2.749,58.508 -1.816,56.408C5.494,39.95 -0.63,20.803 -15.784,11.56C-26.029,5.947 -33.861,4.062 -33.861,4.062L-33.86,4.065C-41.125,1.834 -48.759,0.449 -56.648,0.022C-60.417,0 -65.649,0.063 -65.649,0.063L-68.18,3.901C-86.745,34.64 -88.463,74.278 -69.239,107.576C-53.812,134.295 -28.106,151.379 0,156.721" style="fill:rgb(229,33,60);fill-rule:nonzero;"/>
            </g>
        </g>
    </g>
</svg>
